<svg xmlns="http://www.w3.org/2000/svg" width="41" height="30" viewBox="0 0 41 30"><g><g><path fill="#0072ce" d="M.84 2a2 2 0 0 1 2-2h36.055a2 2 0 0 1 2 2v26a2 2 0 0 1-2 2H2.84a2 2 0 0 1-2-2z"/></g><g><path fill="#fff" d="M22.382 17.807c0-1.124-.866-1.337-1.637-1.337h-3.103l-1.235 1.33-1.195-1.33h-3.906v4.058h3.847l1.243-1.343 1.195 1.343h1.888v-1.36h1.212c.849 0 1.69-.234 1.69-1.361zm-10.11 1.879v-.808h2.137v-.83h-2.136v-.738h2.44l1.063 1.184-1.111 1.192zm4.744-1.185l1.5-1.598v3.248zm2.456-.16v-1.033h1.272c.352 0 .596.143.596.497 0 .35-.233.536-.608.536zm7.8-1.871v4.058h3.248v-.842l-2.28-.003v-.808h2.224v-.828h-2.223v-.738h2.279v-.839zm-1.218 2.172c.256-.101.69-.432.69-1.08 0-.462-.193-.716-.5-.9-.32-.17-.678-.192-1.17-.192h-2.247v4.058h.978v-1.482h1.04c.354 0 .571.035.713.18.18.189.157.55.157.795v.507h.977v-.804c-.004-.358-.024-.543-.161-.741a1.057 1.057 0 0 0-.477-.34zm-1.067-.423h-1.185v-.91h1.201c.174 0 .348.003.466.072.126.066.202.192.202.365a.437.437 0 0 1-.202.39c-.13.076-.292.083-.482.083zm9.237.169c-.22-.223-.583-.314-1.11-.326l-.525-.015c-.165 0-.276-.01-.378-.046a.31.31 0 0 1-.213-.302c0-.129.04-.226.146-.292.098-.067.213-.073.39-.073h1.785v-.864h-1.951c-1.02 0-1.391.62-1.391 1.208 0 1.285 1.14 1.225 2.05 1.256.169 0 .271.029.346.09.067.057.119.15.119.269a.36.36 0 0 1-.115.265c-.082.076-.213.1-.398.1h-1.887v.87h1.895c.981 0 1.528-.407 1.528-1.28 0-.418-.101-.665-.29-.86zm3.871 1.611v1.053c-.388.187-.9.26-1.423.26h-2.515v-.361c-.291.233-.817.361-1.32.361h-7.93v-1.306c0-.16-.015-.166-.176-.166h-.126v1.472h-2.61v-1.524c-.437.188-.932.205-1.352.198h-.311v1.33l-3.165-.004-.778-.878-.825.878H10.43v-5.65h5.232l.75.865.802-.864h3.503c.405 0 1.069.042 1.368.33v-.33h3.13c.293 0 .93.059 1.308.33v-.33h4.745v.33c.236-.225.734-.33 1.16-.33h2.656v.33c.28-.2.673-.33 1.215-.33h1.796v.805h-1.933c-1.019 0-1.393.618-1.393 1.206 0 1.281 1.137 1.222 2.049 1.253.169 0 .271.028.342.09.071.056.118.15.118.268 0 .11-.047.201-.115.264-.078.076-.207.1-.392.1h-1.867v.868h1.874c.622 0 1.082-.174 1.317-.518zm.01-1.513c-.027-.035-.05-.07-.09-.1-.218-.223-.575-.314-1.11-.327l-.531-.014c-.163 0-.274-.01-.377-.046a.306.306 0 0 1-.214-.302c0-.129.04-.226.143-.292.1-.066.218-.073.396-.073h1.783z"/></g><g><path fill="#fff" d="M3.56 14.349V11.39L4.735 8.71h2.532l.326.666V8.71h2.968l.649 1.456.632-1.456h9.423c.428 0 .813.08 1.096.33v-.33h2.58v.33c.443-.243.993-.33 1.619-.33h3.737l.347.666V8.71h2.767l.378.666V8.71h2.696v5.639h-2.724l-.515-.853v.853h-3.4l-.37-.898h-.837l-.378.898h-1.764c-.692 0-1.219-.163-1.557-.344v.344h-4.194v-1.28c0-.18-.032-.19-.142-.194h-.157l.004 1.474h-8.11v-.697l-.29.7h-1.694l-.292-.69v.687H6.803l-.373-.898h-.838l-.374.898zm32.06-.794V9.512h-.995v2.815l-1.707-2.815H31.44v3.824l-1.645-3.824H28.34l-1.369 3.18h-.436c-.256 0-.527-.05-.677-.21-.18-.203-.267-.516-.267-.949 0-.424.114-.745.28-.916.192-.187.392-.24.747-.24h.92v-.865h-.94c-.67 0-1.161.148-1.475.471-.417.433-.523.981-.523 1.58 0 .736.177 1.201.518 1.544.339.344.937.448 1.409.448h1.136l.367-.902h2.017l.378.902h1.978V10.52l1.841 3.035zm-11.486 0V9.512h-1v4.043zM22.581 10.6c0-.45-.184-.714-.492-.895-.314-.18-.68-.193-1.178-.193h-2.237v4.043h.972v-1.471h1.045c.35 0 .567.03.709.173.177.195.153.544.153.788l.004.51h.981v-.795c0-.36-.024-.54-.16-.741a1.128 1.128 0 0 0-.482-.34c.252-.1.685-.434.685-1.079zm-4.56 2.955v-.837h-2.285v-.807h2.23v-.829h-2.23v-.728h2.285v-.842H14.76v4.043zm-3.975 0V9.512H12.43l-1.167 2.742L9.99 9.512H8.405v3.827L6.754 9.512H5.31l-1.74 4.043h1.055l.377-.902h2.022l.374.902h1.975v-3.17l1.412 3.17h.853l1.408-3.167.004 3.167zm15.676-1.745h-1.35l.673-1.612zm-8.893-.558h-1.185v-.898h1.201c.17 0 .347.007.463.072.126.06.204.185.204.358 0 .177-.074.319-.2.384-.135.08-.293.084-.483.084zm-15.482.558l.666-1.612.669 1.612z"/></g></g></svg>