<svg xmlns="http://www.w3.org/2000/svg" width="40" height="30" viewBox="0 0 40 30"><g><g><path fill="#26337a" d="M0 2a2 2 0 0 1 2-2h36.055a2 2 0 0 1 2 2v26a2 2 0 0 1-2 2H2a2 2 0 0 1-2-2z"/></g><g><path fill="#fffffe" d="M14.77 19.777l1.54-9.542h2.46l-1.539 9.542H14.77"/></g><g><path fill="#fffffe" d="M26.154 10.47a6.091 6.091 0 0 0-2.205-.4c-2.433 0-4.146 1.294-4.16 3.147-.015 1.371 1.222 2.136 2.155 2.591.96.467 1.281.766 1.278 1.184-.007.639-.766.931-1.473.931-.986 0-1.509-.144-2.318-.5l-.317-.152-.344 2.135c.574.266 1.638.496 2.742.509 2.585 0 4.265-1.28 4.285-3.258.009-1.087-.647-1.911-2.067-2.591-.86-.443-1.388-.736-1.382-1.183 0-.397.446-.82 1.41-.82a4.322 4.322 0 0 1 1.842.366l.22.109.334-2.068"/></g><g><path fill="#fffffe" d="M32.466 10.25l1.992 9.53h-2.284s-.226-1.095-.3-1.428l-3.152-.005c-.096.258-.517 1.434-.517 1.434H25.62l3.655-8.74c.258-.622.7-.791 1.29-.791zm-3.036 6.146h2.043c-.097-.477-.57-2.753-.57-2.753l-.165-.823c-.125.358-.342.935-.327.91 0 0-.777 2.118-.98 2.666z"/></g><g><path fill="#fffffe" d="M12.706 10.245l-2.41 6.499-.257-1.321C9.59 13.9 8.193 12.25 6.63 11.424l2.204 8.337 2.604-.002 3.875-9.514h-2.607"/></g><g><path fill="#ec982d" d="M8.061 10.233H4.093l-.033.198c3.088.791 5.131 2.7 5.979 4.996l-.862-4.388c-.15-.605-.582-.784-1.116-.806"/></g></g></svg>