<svg xmlns="http://www.w3.org/2000/svg" width="30" height="12" viewBox="0 0 30 12"><g><g><path fill="#0052a9" d="M6.924 10.416c.07-.037.137-.079.208-.113.101-.049-.174.165-.185.157-.013-.01-.019-.027-.023-.044zm9.287-3.13l.036-.037c.07-.055.32-.164.242-.118-.102.061-.184.103-.278.155zm1.755 2.849c-.004 0-.005-.002-.01-.001.218-.12.433-.242.653-.355.218-.114-.405.294-.643.356zm2.512-1.2l.02-.014c.108-.066.437-.252.33-.188l-.35.202zm-17.1.128C4.612 7.219 5.68 5.28 6.821 3.383c.134-.22.266-.441.399-.662A53.037 53.037 0 0 1 6.57 5.5c-.326 1.305-.755 2.586-1.028 3.902-.095.553-.088 1.115-.094 1.673.033.197.163.35.392.227 1.41-.76 1.387-.727 2.223-1.496.02-.02.041-.038.062-.057.175.19.379.6.487.78.262.391.48.527.963.508a13.1 13.1 0 0 1 1.664-.292c.312-.024.237-.02.414-.029-.109.084-.214.172-.33.248l2.19-.855c.572-.404 1.039-.92 1.498-1.44.322.634.423 1.359.505 2.055.033.113.045.234.096.34.252.537.814.347 1.223.114.805-.456 1.598-.933 2.396-1.4l.16-.113c.048.004.096.005.142.019.218.068.419.247.617.356.301.164.256.133.598.266.802.21 1.615-.019 2.423-.06 1.129.037 2.252.143 3.381.17.541-.007 1.095.043 1.615-.127L30 8.863c-.47.311-1.069.225-1.609.256-1.124.001-2.243-.105-3.362-.195-.4.001-.41-.012-.798.042-.519.072-1.036.2-1.562.083-.278-.101-.54-.211-.79-.37-.208-.133-.193-.163-.413-.276-.08-.042-.166-.072-.248-.107-1.128.07-.229-.024-2.535 1.244-.315.173-.61.376-.9.583-.147-.07-.198-.29-.236-.438-.131-.885-.252-1.81-.756-2.58-.081-.077-.135-.268-.242-.232-2.133.735-2.165.94-3.269 2.25-.205.225-.412.45-.623.671l-.113.01c-.556.05-1.11.119-1.647.276-.43.081-.612.001-.863-.352-.163-.264-.39-.75-.605-.948-.048-.044-.108-.071-.162-.107-.862-.037-1.69.773-2.357 1.414 0-.458.01-.918.083-1.372.22-1.291.568-2.555.883-3.825.267-1.06.556-2.116.79-3.183.011-.05.236-1.149.24-1.317C8.91.258 8.863.13 8.841 0c-.504.266-1.03.493-1.51.799-.088.056-.109.176-.16.265-.095.166-.186.333-.279.499-.452.803-.917 1.6-1.392 2.391C4.363 5.87 3.277 7.818 1.99 9.646c-.437.56-.868 1.115-1.387 1.609-.101.096-.205.19-.316.275-.075.06-.324.203-.24.157.423-.226.837-.466 1.255-.7l-.966.751c.46-.278 1.062-.426 1.466-.791.61-.552 1.092-1.232 1.576-1.884zM.336 11.738A1.62 1.62 0 0 0 0 12z"/></g></g></svg>