<svg xmlns="http://www.w3.org/2000/svg" width="41" height="30" viewBox="0 0 41 30"><defs><clipPath id="k7e1a"><path fill="#fff" d="M.55 2a2 2 0 0 1 2-2h36.055a2 2 0 0 1 2 2v26a2 2 0 0 1-2 2H2.55a2 2 0 0 1-2-2z"/></clipPath></defs><g><g><path fill="#fff" d="M.55 2a2 2 0 0 1 2-2h36.055a2 2 0 0 1 2 2v26a2 2 0 0 1-2 2H2.55a2 2 0 0 1-2-2z"/><path fill="none" stroke="#e6772f" stroke-miterlimit="50" stroke-width="2" d="M.55 2a2 2 0 0 1 2-2h36.055a2 2 0 0 1 2 2v26a2 2 0 0 1-2 2H2.55a2 2 0 0 1-2-2z" clip-path="url(&quot;#k7e1a&quot;)"/></g><g><path fill="#e6772f" d="M12.63 30.005h25.981a2 2 0 0 0 2-2V20.32s-9.882 6.69-27.981 9.685z"/></g><g><path fill="#1a1919" d="M5.147 11.547c1.718 0 2.916 1.014 2.916 2.475 0 .73-.368 1.434-.986 1.9-.521.394-1.116.573-1.94.573H3.59v-4.948zm1.24 3.714c.364-.295.583-.77.583-1.247a1.6 1.6 0 0 0-.584-1.23c-.353-.288-.766-.4-1.451-.4H4.65v3.271h.285c.685 0 1.114-.12 1.451-.394z"/></g><g><path fill="#1a1919" d="M8.55 11.547h1.056v4.948H8.55z"/></g><g><path fill="#1a1919" d="M12.2 13.441c-.637-.213-.823-.355-.823-.622 0-.312.333-.548.79-.548.318 0 .579.116.857.4l.552-.66c-.456-.366-1-.551-1.595-.551-.962 0-1.694.61-1.694 1.417 0 .685.34 1.032 1.334 1.362.416.132.627.222.734.283.212.125.317.303.317.51 0 .403-.35.7-.823.7-.504 0-.912-.23-1.156-.663l-.683.604c.488.652 1.074.944 1.88.944 1.1 0 1.875-.672 1.875-1.628 0-.788-.36-1.146-1.565-1.548"/></g><g><path fill="#1a1919" d="M14.1 14.02c0 1.458 1.254 2.587 2.868 2.587.456 0 .846-.082 1.327-.29V15.18c-.425.39-.798.543-1.28.543-1.067 0-1.822-.704-1.822-1.708 0-.95.78-1.701 1.775-1.701.503 0 .887.162 1.327.557v-1.137c-.465-.214-.846-.303-1.305-.303-1.605 0-2.89 1.151-2.89 2.59"/></g><g><path fill="#1a1919" d="M26.874 14.866l-1.449-3.326H24.27l2.303 5.08h.568l2.348-5.08h-1.146l-1.469 3.326"/></g><g><path fill="#1a1919" d="M29.97 16.495h3.005v-.839H31.03v-1.335h1.87v-.838h-1.87v-1.098h1.945v-.838H29.97v4.948"/></g><g><path fill="#1a1919" d="M37.165 13.007c0 .757-.438 1.254-1.237 1.402l1.71 2.086h-1.304l-1.464-1.99h-.138v1.99H33.67v-4.948h1.574c1.223 0 1.92.533 1.92 1.46zm-2.125.811c.68 0 1.034-.265 1.034-.76 0-.481-.355-.734-1.017-.734h-.325v1.494z"/></g><g><path fill="#e6772f" d="M24.424 14.033c0 1.427-1.267 2.583-2.832 2.583-1.564 0-2.832-1.156-2.832-2.583 0-1.427 1.268-2.583 2.832-2.583 1.565 0 2.832 1.156 2.832 2.583"/></g></g></svg>