<svg xmlns="http://www.w3.org/2000/svg" width="41" height="30" viewBox="0 0 41 30"><g><g><path fill="#006" d="M.28 2a2 2 0 0 1 2-2h36.055a2 2 0 0 1 2 2v26a2 2 0 0 1-2 2H2.28a2 2 0 0 1-2-2z"/></g><g><path fill="#c00" d="M23.565 15.248c0 5.389-4.31 9.757-9.627 9.757-5.318 0-9.628-4.368-9.628-9.757 0-5.39 4.31-9.758 9.628-9.758 5.317 0 9.627 4.369 9.627 9.758"/></g><g><path fill="#f90" d="M26.871 5.49a9.523 9.523 0 0 0-6.463 2.526 9.89 9.89 0 0 0-.972 1.033h1.945c.266.327.51.672.734 1.033h-3.413c-.204.332-.39.676-.555 1.034h4.523c.154.334.29.678.408 1.033H17.74a9.82 9.82 0 0 0-.28 1.032h5.897a9.956 9.956 0 0 1-.28 5.166H17.74c.117.354.253.699.407 1.034h4.523c-.165.356-.35.701-.556 1.033h-3.412c.223.36.468.705.734 1.033h1.945a9.696 9.696 0 0 1-.973 1.033 9.521 9.521 0 0 0 6.463 2.525c5.317 0 9.628-4.368 9.628-9.757 0-5.389-4.31-9.758-9.628-9.758"/></g><g><path fill="#006" d="M11.59 18.105l.02-.417c-.264.33-.616.487-1.095.487-.567 0-.955-.449-.955-1.1 0-.98.675-1.552 1.835-1.552.119 0 .27.011.426.031.032-.133.04-.189.04-.26 0-.267-.181-.367-.67-.367a3.443 3.443 0 0 0-1.106.181l.145-.905c.52-.155.864-.213 1.251-.213.898 0 1.373.408 1.372 1.18.002.207-.032.462-.085.798-.09.583-.285 1.833-.311 2.137h-.867zm-.127-1.803c-.593 0-.892.206-.892.615 0 .25.146.41.374.41.426 0 .733-.411.751-1.009a1.77 1.77 0 0 0-.233-.016z"/></g><g><path fill="#006" d="M9.121 18.11H8.076l.6-3.81-1.338 3.81h-.712l-.088-3.79-.63 3.79H4.93l.817-4.957H7.25l.091 2.774.917-2.774H9.93l-.809 4.956"/></g><g><path fill="#006" d="M28.05 18.105l.02-.417c-.264.33-.616.487-1.095.487-.567 0-.955-.449-.955-1.1 0-.98.676-1.552 1.835-1.552.119 0 .27.011.426.031a1 1 0 0 0 .04-.26c0-.267-.181-.367-.67-.367a3.45 3.45 0 0 0-1.107.181c.012-.067.146-.905.146-.905.52-.155.865-.213 1.25-.213.899 0 1.374.408 1.373 1.18.002.207-.032.462-.085.798-.09.583-.285 1.833-.312 2.137h-.866zm-.121-1.803c-.595 0-.895.206-.895.615 0 .25.146.41.376.41.426 0 .734-.411.752-1.009a1.772 1.772 0 0 0-.233-.016z"/></g><g><path fill="#006" d="M17.097 18.043a2.36 2.36 0 0 1-.75.13c-.535 0-.827-.31-.827-.883-.007-.178.077-.646.144-1.073.06-.376.453-2.747.453-2.747h1.039l-.122.61h.628l-.142.967h-.63c-.12.765-.292 1.719-.294 1.845 0 .208.11.298.358.298a.84.84 0 0 0 .282-.038l-.139.891"/></g><g><path fill="#006" d="M19.701 15.625h-1.147c.096-.463.333-.718.664-.718.593 0 .49.634.483.718zm.584 2.386l.173-1a2.437 2.437 0 0 1-1.08.253c-.604 0-.973-.244-.903-.828h2.069a4.36 4.36 0 0 0 .128-.99c0-.889-.547-1.456-1.404-1.456-1.047 0-1.818 1.013-1.818 2.389 0 1.179.606 1.794 1.77 1.796a3.49 3.49 0 0 0 1.065-.164z"/></g><g><path fill="#006" d="M13.086 15.353c0 .508.243.86.795 1.123.424.202.49.262.49.444 0 .251-.187.365-.6.365-.313 0-.603-.05-.937-.16l-.144.93c.237.053.45.101 1.088.12 1.102 0 1.612-.426 1.612-1.346 0-.553-.213-.877-.737-1.122-.438-.203-.489-.249-.489-.437 0-.217.174-.329.512-.329a5.7 5.7 0 0 1 .751.06l.149-.933a6.964 6.964 0 0 0-.92-.078c-1.17 0-1.574.619-1.57 1.363"/></g><g><path fill="#006" d="M25.363 14.096c.29 0 .562.076.934.267l.172-1.074c-.154-.061-.693-.419-1.15-.419-.698 0-1.29.352-1.706.932-.607-.203-.856.208-1.162.618l-.271.064c.02-.135.039-.269.033-.404h-.96c-.131 1.246-.364 2.507-.545 3.754l-.048.27h1.046c.174-1.149.27-1.884.328-2.383l.393-.221c.06-.222.243-.297.613-.288a4.568 4.568 0 0 0-.075.825c0 1.317.702 2.137 1.827 2.137.29 0 .539-.038.924-.145l.183-1.128c-.346.173-.63.254-.887.254-.608 0-.976-.455-.976-1.206 0-1.09.547-1.853 1.327-1.853"/></g><g><path fill="#006" d="M32.376 16.385c0-.793.337-1.355.81-1.355.36 0 .554.278.554.79 0 .8-.342 1.36-.828 1.36-.356 0-.536-.268-.536-.795zm1.61-1.8c-.285-.382-.592-.658-.997-.658-.527 0-1.007.406-1.322 1.003a8.502 8.502 0 0 1-.89-.249c.035-.331.05-.533.046-.603h-.96c-.13 1.248-.363 2.512-.545 3.76l-.048.271h1.046c.141-.93.25-1.703.329-2.316.357-.328.536-.613.897-.594a3.5 3.5 0 0 0-.254 1.307c0 1.008.502 1.673 1.262 1.673.383 0 .677-.134.964-.445l-.05.375h.99l.796-4.956h-1.031z"/></g><g><path fill="#fff" d="M9.421 17.809H8.376l.6-3.805-1.338 3.805h-.712l-.088-3.782-.63 3.782H5.23l.817-4.949H7.55l.042 3.064 1.014-3.064h1.624l-.809 4.949"/></g><g><path fill="#fff" d="M11.89 17.815l.02-.417c-.264.33-.616.487-1.095.487-.567 0-.955-.449-.955-1.1 0-.98.676-1.551 1.835-1.551.119 0 .27.01.426.031.032-.133.04-.19.04-.262 0-.266-.181-.365-.67-.365a3.43 3.43 0 0 0-1.106.18l.145-.905c.52-.155.864-.213 1.251-.213.898 0 1.373.409 1.372 1.18a5.22 5.22 0 0 1-.085.798c-.09.582-.285 1.833-.312 2.137h-.866zm-.127-1.81c-.593 0-.892.206-.892.613 0 .25.146.41.374.41.426 0 .733-.41.751-1.006a1.715 1.715 0 0 0-.233-.016z"/></g><g><path fill="#fff" d="M26.773 12.997l-.171 1.074c-.374-.19-.644-.267-.934-.267-.78 0-1.328.764-1.328 1.855 0 .75.368 1.204.976 1.204.257 0 .542-.08.888-.253l-.184 1.127c-.385.107-.634.146-.924.146-1.125 0-1.826-.82-1.826-2.137 0-1.77.969-3.006 2.354-3.006.457 0 .996.196 1.149.257"/></g><g><path fill="#fff" d="M28.35 17.815l.02-.417c-.264.33-.617.487-1.095.487-.567 0-.955-.449-.955-1.1 0-.98.675-1.551 1.835-1.551.118 0 .27.01.425.031.033-.133.041-.19.041-.262 0-.266-.181-.365-.67-.365a3.432 3.432 0 0 0-1.106.18l.145-.905c.52-.155.864-.213 1.25-.213.898 0 1.374.409 1.373 1.18.002.207-.032.463-.085.798-.09.582-.285 1.833-.312 2.137h-.866zm-.121-1.81c-.594 0-.895.206-.895.613 0 .25.146.41.375.41.427 0 .735-.41.753-1.006a1.713 1.713 0 0 0-.233-.016z"/></g><g><path fill="#fff" d="M17.397 17.753c-.286.091-.509.13-.75.13-.535 0-.827-.31-.827-.883-.007-.179.078-.646.144-1.073.06-.377.453-2.747.453-2.747h1.04l-.122.61h.533l-.142.966h-.535c-.12.766-.293 1.72-.295 1.846 0 .208.11.298.358.298.12 0 .211-.012.282-.038l-.139.89"/></g><g><path fill="#fff" d="M20.001 15.335h-1.147c.096-.462.333-.718.664-.718.594 0 .49.634.483.718zm.585 2.387l.172-1.001a2.435 2.435 0 0 1-1.08.253c-.604 0-.973-.243-.903-.827h2.069c.09-.407.128-.695.128-.99 0-.89-.547-1.457-1.404-1.457-1.047 0-1.818 1.013-1.818 2.39 0 1.178.606 1.794 1.77 1.795.364 0 .708-.052 1.066-.163z"/></g><g><path fill="#fff" d="M13.385 15.063c0 .51.244.86.797 1.124.423.201.488.261.488.444 0 .25-.186.364-.6.364a2.91 2.91 0 0 1-.937-.158l-.143.928c.237.053.45.101 1.087.12 1.103 0 1.613-.426 1.613-1.345 0-.554-.214-.878-.737-1.122-.438-.204-.489-.25-.489-.437 0-.218.174-.33.512-.33.205 0 .485.023.75.061l.15-.933a7.022 7.022 0 0 0-.92-.079c-1.17 0-1.574.619-1.57 1.363"/></g><g><path fill="#fff" d="M33.213 16.879c-.355 0-.535-.266-.535-.793 0-.792.336-1.353.81-1.353.36 0 .554.278.554.79 0 .797-.342 1.356-.829 1.356zm1.542.93l.796-4.949h-1.03l-.232 1.43c-.286-.381-.593-.549-.998-.549-.922 0-1.701 1.129-1.701 2.467 0 1.007.503 1.67 1.262 1.67.383 0 .677-.133.964-.444l-.05.375z"/></g><g><path fill="#fff" d="M30.163 13.783c-.131 1.246-.364 2.508-.545 3.754l-.048.271h1.045c.374-2.461.464-2.942 1.051-2.882.093-.503.267-.945.397-1.167-.438-.093-.683.158-1.003.635.026-.206.072-.406.063-.61h-.96"/></g><g><path fill="#fff" d="M21.563 13.783c-.131 1.246-.364 2.508-.546 3.754l-.047.271h1.046c.374-2.461.463-2.942 1.05-2.882.093-.503.267-.945.396-1.167-.437-.093-.682.158-1.002.635.026-.206.072-.406.063-.61h-.96"/></g></g></svg>