<svg xmlns="http://www.w3.org/2000/svg" width="12" height="12" viewBox="0 0 12 12"><g><g><path fill="#278ae2" d="M7.325 3.28A7.242 7.242 0 0 0 6.412 3h-.77c-.317.082-.943.325-1.06.413-.118.089-.464.445-.534.571-.07.126-.25.654-.267.872-.017.217.307.394.72.394.414 0 .752-.283.752-.45 0-.165.045-.45.053-.476a.931.931 0 0 1 .201-.211c.06-.037.227-.106.37-.154H6.284c.18.1.482.4.501.52.019.12.019.417-.008.478a1.444 1.444 0 0 1-.203.297 5.55 5.55 0 0 1-.315.25c-.065.044-.291.211-.353.268a3.09 3.09 0 0 0-.312.364c-.049.081-.21.375-.257.46-.046.085.254.154.667.154.413 0 .773-.179.77-.197-.003-.018.141-.183.204-.232.064-.05.297-.214.372-.26.074-.047.325-.22.39-.282.066-.061.271-.303.318-.389.048-.086.11-.244.142-.35.032-.106.032-.693 0-.791-.031-.099-.203-.436-.285-.527-.083-.09-.447-.377-.591-.442zM6 7.5A.75.75 0 1 0 6 9a.75.75 0 0 0 0-1.5zM1.5 6c0-2.482 2.018-4.5 4.5-4.5s4.5 2.018 4.5 4.5-2.018 4.5-4.5 4.5A4.505 4.505 0 0 1 1.5 6zM0 6c0 3.308 2.692 6 6 6s6-2.692 6-6-2.692-6-6-6-6 2.692-6 6z"/></g></g></svg>